<svg width="1457" height="344" viewBox="0 0 1457 344" fill="none" xmlns="http://www.w3.org/2000/svg">
<path d="M729.84 253.12C718.08 253.12 707.44 250.693 697.92 245.84C688.4 240.8 680.653 231.093 674.68 216.72L668.24 201.04H593.76L570.8 252H556.24L638.84 67.2H651.44L714.16 216.72C721.253 234.08 730.96 243.413 743.28 244.72V251.72C739.92 252.653 735.44 253.12 729.84 253.12ZM599.64 188.44H662.92L632.12 115.36L599.64 188.44ZM753.209 103.6C753.209 94.08 751.902 87.08 749.289 82.6C746.676 77.9333 741.449 75.6 733.609 75.6H730.809V67.2H764.409C771.129 67.2 776.262 68.32 779.809 70.56C783.356 72.8 785.876 76.5333 787.369 81.76C788.862 86.8 789.609 94.08 789.609 103.6V252H753.209V103.6ZM879.997 308C858.717 308 841.917 304.547 829.597 297.64C817.463 290.92 811.397 279.907 811.397 264.6C811.397 255.267 815.13 247.52 822.597 241.36C830.063 235.2 838.93 230.813 849.197 228.2C840.797 225.587 836.597 220.453 836.597 212.8C836.597 206.453 840.33 201.787 847.797 198.8C839.77 196 833.05 191.147 827.637 184.24C822.41 177.333 819.797 169.68 819.797 161.28C819.797 145.973 825.21 134.867 836.037 127.96C847.05 121.053 861.703 117.6 879.997 117.6H938.797V125.16L913.597 128.52C921.437 131.507 927.783 136.08 932.637 142.24C937.677 148.4 940.197 154.747 940.197 161.28C940.197 176.587 934.97 187.6 924.517 194.32C914.25 201.04 899.41 204.4 879.997 204.4C870.29 204.4 863.197 204.96 858.717 206.08C854.237 207.013 851.997 209.253 851.997 212.8C851.997 215.787 854.237 217.747 858.717 218.68C863.197 219.613 870.29 220.173 879.997 220.36C900.157 220.733 916.583 224.747 929.277 232.4C942.157 239.867 948.597 250.6 948.597 264.6C948.597 279.907 942.437 290.92 930.117 297.64C917.983 304.547 901.277 308 879.997 308ZM879.997 193.2C894.93 193.2 902.397 182.56 902.397 161.28C902.397 150.827 900.343 142.8 896.237 137.2C892.13 131.6 886.717 128.8 879.997 128.8C873.09 128.8 867.583 131.507 863.477 136.92C859.557 142.333 857.597 150.453 857.597 161.28C857.597 182.56 865.063 193.2 879.997 193.2ZM879.997 295.4C889.703 295.4 897.263 292.787 902.677 287.56C908.09 282.52 910.797 274.867 910.797 264.6C910.797 256.387 908.183 249.573 902.957 244.16C897.917 238.56 891.01 234.92 882.237 233.24L869.077 231.84C862.543 234.64 857.597 238.653 854.237 243.88C850.877 249.107 849.197 256.013 849.197 264.6C849.197 274.867 851.903 282.52 857.317 287.56C862.73 292.787 870.29 295.4 879.997 295.4ZM1031.32 254.8C1017.69 254.8 1005.75 251.813 995.479 245.84C985.399 239.68 977.652 231.467 972.239 221.2C966.826 210.747 964.119 199.08 964.119 186.2C964.119 173.32 966.826 161.747 972.239 151.48C977.652 141.027 985.399 132.813 995.479 126.84C1005.75 120.68 1017.69 117.6 1031.32 117.6C1044.95 117.6 1056.8 120.68 1066.88 126.84C1077.15 132.813 1084.99 141.027 1090.4 151.48C1095.81 161.747 1098.52 173.32 1098.52 186.2C1098.52 199.08 1095.81 210.747 1090.4 221.2C1084.99 231.467 1077.15 239.68 1066.88 245.84C1056.8 251.813 1044.95 254.8 1031.32 254.8ZM1031.32 242.2C1040.84 242.2 1048.12 237.067 1053.16 226.8C1058.2 216.533 1060.72 203 1060.72 186.2C1060.72 169.4 1058.2 155.867 1053.16 145.6C1048.12 135.333 1040.84 130.2 1031.32 130.2C1021.8 130.2 1014.52 135.333 1009.48 145.6C1004.44 155.867 1001.92 169.4 1001.92 186.2C1001.92 203 1004.44 216.533 1009.48 226.8C1014.52 237.067 1021.8 242.2 1031.32 242.2ZM1130.93 156.8C1130.93 147.28 1129.62 140.28 1127.01 135.8C1124.58 131.133 1119.45 128.8 1111.61 128.8H1108.81V120.4H1136.53C1142.88 120.4 1147.82 121.24 1151.37 122.92C1155.1 124.413 1158 127.027 1160.05 130.76C1169.57 121.987 1183.2 117.6 1200.93 117.6C1218.66 117.6 1231.92 121.8 1240.69 130.2C1249.65 138.413 1254.13 151.387 1254.13 169.12V252H1217.73V168.84C1217.73 155.96 1215.3 146.533 1210.45 140.56C1205.78 134.587 1199.34 131.6 1191.13 131.6C1185.34 131.6 1180.21 132.44 1175.73 134.12C1171.44 135.613 1167.98 137.667 1165.37 140.28L1166.21 144.2C1166.96 146.44 1167.33 150.08 1167.33 155.12V252H1130.93V156.8ZM1344.35 254.8C1331.47 254.8 1320.17 251.813 1310.47 245.84C1300.76 239.867 1293.2 231.747 1287.79 221.48C1282.56 211.027 1279.95 199.267 1279.95 186.2C1279.95 171.64 1282.56 159.227 1287.79 148.96C1293.2 138.693 1300.57 130.947 1309.91 125.72C1319.24 120.307 1329.79 117.6 1341.55 117.6C1353.12 117.6 1363.57 119.933 1372.91 124.6C1382.24 129.267 1389.61 135.893 1395.03 144.48C1400.44 152.88 1403.15 162.587 1403.15 173.6C1403.15 177.147 1402.96 181.16 1402.59 185.64L1402.03 191.24H1317.75C1317.75 208.973 1320.45 221.947 1325.87 230.16C1331.28 238.187 1338.84 242.2 1348.55 242.2C1357.51 242.2 1364.97 240.24 1370.95 236.32C1377.11 232.213 1382.99 226.427 1388.59 218.96L1397.27 225.4C1391.85 233.8 1385.04 240.8 1376.83 246.4C1368.8 252 1357.97 254.8 1344.35 254.8ZM1365.35 178.64C1365.35 161.093 1363.29 148.68 1359.19 141.4C1355.08 133.933 1349.2 130.2 1341.55 130.2C1334.45 130.2 1328.67 134.027 1324.19 141.68C1319.89 149.147 1317.75 161.467 1317.75 178.64H1365.35Z" fill="white"/>
<circle cx="231" cy="172" r="108" stroke="white" stroke-width="40"/>
<circle cx="231" cy="172" r="51" fill="white"/>
<path d="M76 163C76 154.163 83.1634 147 92 147H108V187H92C83.1634 187 76 179.837 76 171V163Z" fill="white"/>
<path d="M453 176C453 184.837 445.837 192 437 192H354V152H437C445.837 152 453 159.163 453 168V176Z" fill="white"/>
<rect y="147" width="51" height="40" rx="16" fill="white"/>
<path d="M51 232C51 223.163 58.1634 216 67 216H146V256H67C58.1634 256 51 248.837 51 240V232Z" fill="white"/>
<path d="M33 94C33 85.1634 40.1634 78 49 78H146V118H49C40.1634 118 33 110.837 33 102V94Z" fill="white"/>
</svg>
